<svg width="800" height="800" viewBox="0 0 800 800" fill="none" xmlns="http://www.w3.org/2000/svg">
<path d="M447.83 665.917L449.157 649.303L447.83 665.917ZM390.517 649.543L406.783 645.92L390.517 649.543ZM464.68 207.102L474.073 193.334L464.68 207.102ZM683.333 433.333C683.333 313.672 586.33 216.667 466.667 216.667V183.333C604.737 183.333 716.667 295.262 716.667 433.333H683.333ZM466.667 650C586.33 650 683.333 552.997 683.333 433.333H716.667C716.667 571.403 604.737 683.333 466.667 683.333V650ZM449.157 649.303C454.93 649.763 460.77 650 466.667 650V683.333C459.883 683.333 453.157 683.063 446.503 682.53L449.157 649.303ZM440.45 588.363C505.92 551.05 550 480.653 550 399.983H583.333C583.333 493.11 532.403 574.323 456.957 617.323L440.45 588.363ZM550 399.983C550 325.566 512.5 259.904 455.287 220.869L474.073 193.334C539.997 238.314 583.333 314.085 583.333 399.983H550ZM446.503 682.53C428.903 681.127 413.677 679.957 402.687 677.363C392.177 674.88 377.84 669.287 374.25 653.167L406.783 645.92C405.87 641.81 401.977 642.947 410.347 644.92C418.24 646.787 430.333 647.8 449.157 649.303L446.503 682.53ZM456.957 617.323C436.24 629.133 422.123 637.213 413.327 643.743C408.923 647.013 407.103 649.007 406.497 649.887C406.193 650.327 407.387 648.62 406.783 645.92L374.25 653.167C372.31 644.46 375.033 636.803 379.05 630.973C382.763 625.583 388.05 620.993 393.457 616.98C404.28 608.943 420.593 599.68 440.45 588.363L456.957 617.323ZM466.667 216.667C473.22 216.667 477.837 211.936 479.147 207.16C480.41 202.556 479.007 196.699 474.073 193.334L455.287 220.869C447.22 215.365 444.91 205.958 447.003 198.338C449.14 190.546 456.317 183.333 466.667 183.333V216.667Z" fill="white"/>
<path d="M246.667 373.333C250.046 383.47 251.735 388.54 253.425 390.75C260.096 399.477 273.237 399.477 279.908 390.75C281.598 388.54 283.288 383.47 286.667 373.333C289.392 365.157 290.755 361.067 292.518 357.367C299.097 343.557 310.224 332.43 324.033 325.852C327.734 324.089 331.823 322.726 340 320C350.137 316.621 355.207 314.931 357.417 313.241C366.143 306.571 366.143 293.429 357.417 286.759C355.207 285.069 350.137 283.379 340 280C331.823 277.274 327.734 275.911 324.033 274.148C310.224 267.57 299.097 256.443 292.518 242.634C290.755 238.933 289.392 234.844 286.667 226.667C283.288 216.529 281.598 211.461 279.908 209.25C273.237 200.523 260.096 200.523 253.425 209.25C251.735 211.461 250.046 216.529 246.667 226.667C243.941 234.844 242.578 238.933 240.815 242.634C234.236 256.443 223.11 267.57 209.3 274.148C205.6 275.911 201.511 277.274 193.333 280C183.196 283.379 178.127 285.069 175.917 286.759C167.19 293.429 167.19 306.571 175.917 313.241C178.127 314.931 183.196 316.621 193.333 320C201.511 322.726 205.6 324.089 209.3 325.852C223.11 332.43 234.236 343.557 240.815 357.367C242.578 361.067 243.941 365.157 246.667 373.333Z" stroke="white" stroke-width="33.3333"/>
</svg>
