<svg width="490" height="490" viewBox="0 0 490 490" fill="none" xmlns="http://www.w3.org/2000/svg">
<path d="M320.521 158.239L428.689 79.288L438.029 92.595L465.837 32.799L400.146 38.618L411.095 54.222L320.062 120.647L196.413 34.851L0 134.184V168.162L194.055 70.499L320.521 158.239Z" fill="#898989"/>
<path d="M100.879 144.55L0 195.388V457.201H100.879V144.55ZM70.254 426.576H30.625V214.253L70.254 194.286V426.576V426.576Z" fill="#898989"/>
<path d="M129.712 128.916V457.201H230.591V128.916L190.457 99.21L129.712 128.916ZM199.966 426.576H160.337V148.041L187.195 134.903L199.966 144.366V426.576Z" fill="#898989"/>
<path d="M259.409 146.587V457.201H360.288V160.184L320.123 189.645L259.409 146.587ZM329.663 220.638V426.576H290.034V205.861L302.406 214.635L320.429 227.421L329.663 220.638Z" fill="#898989"/>
<path d="M389.121 457.201H490V66.395L389.121 144.55V457.201ZM419.746 159.572L459.375 128.855V426.576H419.746V159.572Z" fill="#898989"/>
</svg>
